<?xml version="1.0" standalone="no"?>
<!DOCTYPE svg PUBLIC "-//W3C//DTD SVG 1.1//EN" "http://www.w3.org/Graphics/SVG/1.1/DTD/svg11.dtd">
<svg id="fotorama_icons" viewBox="0 0 96 160" version="1.1" xmlns="http://www.w3.org/2000/svg" xmlns:xlink="http://www.w3.org/1999/xlink" xml:space="preserve"	x="0px" y="0px" width="96px" height="160px">
	<path id="shadow" d="M 85.2071 7.7929 C 84.8166 7.4024 84.1834 7.4023 83.7928 7.7928 L 79 12.585 L 74.2071 7.7929 C 73.8165 7.4024 73.1834 7.4024 72.7928 7.793 L 70.7929 9.7929 C 70.4024 10.1834 70.4023 10.8166 70.7928 11.2072 L 75.585 16 L 70.7929 20.7929 C 70.4024 21.1835 70.4024 21.8166 70.793 22.2072 L 72.7929 24.2071 C 73.1834 24.5976 73.8166 24.5977 74.2072 24.2072 L 79 19.415 L 83.7929 24.2071 C 84.1835 24.5976 84.8166 24.5976 85.2072 24.2071 L 87.2071 22.2071 C 87.5976 21.8166 87.5977 21.1834 87.2072 20.7928 L 82.415 16 L 87.2071 11.2071 C 87.5976 10.8165 87.5976 10.1834 87.207 9.7928 L 85.2071 7.7929 ZM 15 112 C 15 93.7744 29.7744 79 48 79 C 66.2256 79 81 93.7744 81 112 C 81 130.2256 66.2256 145 48 145 C 29.7744 145 15 130.2256 15 112 ZM 9 112 C 9 133.5394 26.4606 151 48 151 C 69.5394 151 87 133.5394 87 112 C 87 90.4606 69.5394 73 48 73 C 26.4606 73 9 90.4606 9 112 ZM 35 128.6415 C 35 129.1938 35.3978 129.4361 35.8886 129.1828 L 68.2917 112.4586 C 68.7825 112.2053 68.7825 111.7947 68.2917 111.5414 L 35.8886 94.8172 C 35.3978 94.5639 35 94.8062 35 95.3585 L 35 128.6415 ZM 70 48 C 70 42.4771 74.4771 38 80 38 C 85.5229 38 90 42.4771 90 48 C 90 53.5229 85.5229 58 80 58 C 74.4771 58 70 53.5229 70 48 ZM 66 48 C 66 55.7321 72.2679 62 80 62 C 87.7321 62 94 55.7321 94 48 C 94 40.2679 87.7321 34 80 34 C 72.2679 34 66 40.2679 66 48 ZM 75.8944 41.8292 C 75.4004 41.5822 75 41.8297 75 42.382 L 75 53.618 C 75 54.1703 75.4004 54.4178 75.8944 54.1708 L 87.3416 48.4472 C 87.8356 48.2002 87.8356 47.7998 87.3416 47.5528 L 75.8944 41.8292 ZM 47.965 48 L 40 48 C 38.8954 48 38.6332 48.6332 39.4142 49.4142 L 41.362 51.362 L 39.6823 53.0416 C 39.2635 53.4604 39.0034 54.038 39.0034 54.6771 C 39.0034 55.9552 40.0395 56.9914 41.3177 56.9914 C 41.9568 56.9914 42.5343 56.7313 42.9531 56.3125 L 44.638 54.638 L 46.5858 56.5858 C 47.3668 57.3668 48 57.1046 48 56 L 48 48.035 L 47.9645 48.0355 L 47.965 48 ZM 48 48 L 47.965 48 L 47.9645 48.0355 L 48 48.035 L 48 48 ZM 48 48 L 48 48.035 L 55.9645 48.0355 C 57.0691 48.0355 57.3314 47.4023 56.5503 46.6213 L 54.6025 44.6735 L 56.2822 42.9938 C 56.701 42.575 56.9611 41.9975 56.9611 41.3584 C 56.9611 40.0803 55.925 39.0441 54.6468 39.0441 C 54.0077 39.0441 53.4302 39.3042 53.0114 39.723 L 51.3265 41.3975 L 49.3787 39.4497 C 48.5977 38.6686 47.9645 38.9309 47.9645 40.0355 L 47.965 48 L 48 48 ZM 24 40 L 16 40 C 14.8954 40 14.6332 40.6332 15.4142 41.4142 L 17.362 43.362 L 15.6823 45.0416 C 15.2635 45.4604 15.0034 46.038 15.0034 46.6771 C 15.0034 46.8135 15.0174 46.9451 15.04 47.075 C 14.9129 47.0534 14.7801 47.0441 14.6468 47.0441 C 14.0077 47.0441 13.4302 47.3042 13.0114 47.723 L 11.3265 49.3975 L 9.3787 47.4497 C 8.5977 46.6686 7.9645 46.9309 7.9645 48.0355 L 7.9645 56.0355 L 15.9645 56.0355 C 17.0691 56.0355 17.3314 55.4023 16.5503 54.6213 L 14.6025 52.6735 L 16.2822 50.9938 C 16.701 50.575 16.9611 49.9975 16.9611 49.3584 C 16.9611 49.222 16.9476 49.09 16.925 48.96 C 17.0521 48.9817 17.1844 48.9914 17.3177 48.9914 C 17.9568 48.9914 18.5343 48.7313 18.9531 48.3125 L 20.638 46.638 L 22.5858 48.5858 C 23.3668 49.3668 24 49.1046 24 48 L 24 40 ZM 20.167 25.322 C 20.627 25.6276 21 25.4276 21 24.8753 L 21 7.1247 C 21 6.5724 20.627 6.3724 20.167 6.678 L 6.9629 15.4468 C 6.5029 15.7523 6.5029 16.2477 6.9629 16.5532 L 20.167 25.322 ZM 43.7705 6.678 C 43.3105 6.3724 42.9375 6.5724 42.9375 7.1247 L 42.9375 24.8753 C 42.9375 25.4276 43.3105 25.6276 43.7705 25.322 L 56.9746 16.5532 C 57.4346 16.2477 57.4346 15.7523 56.9746 15.4468 L 43.7705 6.678 Z" fill="#00000080"/>
	<path id="icon" d="M 86.5 10.5 L 84.5 8.5 L 79 14 L 73.5 8.5 L 71.5 10.5 L 77 16 L 71.5 21.5 L 73.5 23.5 L 79 18 L 84.5 23.5 L 86.5 21.5 L 81 16 L 86.5 10.5 ZM 14 112 C 14 93.2221 29.2221 78 48 78 C 66.7779 78 82 93.2221 82 112 C 82 130.7779 66.7779 146 48 146 C 29.2221 146 14 130.7779 14 112 ZM 10 112 C 10 132.9871 27.0129 150 48 150 C 68.9871 150 86 132.9871 86 112 C 86 91.0129 68.9871 74 48 74 C 27.0129 74 10 91.0129 10 112 ZM 36 96 L 36 128 L 67 112 L 36 96 ZM 69 48 C 69 41.9248 73.9248 37 80 37 C 86.0752 37 91 41.9248 91 48 C 91 54.0752 86.0752 59 80 59 C 73.9248 59 69 54.0752 69 48 ZM 67 48 C 67 55.1798 72.8202 61 80 61 C 87.1798 61 93 55.1798 93 48 C 93 40.8202 87.1798 35 80 35 C 72.8202 35 67 40.8202 67 48 ZM 86 48 L 76 43 L 76 53 L 86 48 ZM 48.9645 40.0355 L 48.9645 47.0355 L 55.9645 47.0355 L 53.5245 44.5955 L 55.5245 42.5955 C 55.796 42.324 55.9645 41.9497 55.9645 41.5355 C 55.9645 40.707 55.293 40.0355 54.4645 40.0355 C 54.0503 40.0355 53.676 40.204 53.4045 40.4755 L 51.4045 42.4755 L 48.9645 40.0355 ZM 47 56 L 47 49 L 40 49 L 42.44 51.44 L 40.44 53.44 C 40.1686 53.7114 40 54.0858 40 54.5 C 40 55.3284 40.6716 56 41.5 56 C 41.9142 56 42.2886 55.8314 42.56 55.56 L 44.56 53.56 L 47 56 ZM 8.9645 48.0355 L 8.9645 55.0355 L 15.9645 55.0355 L 13.5245 52.5955 L 15.5245 50.5955 C 15.796 50.324 15.9645 49.9497 15.9645 49.5355 C 15.9645 48.707 15.293 48.0355 14.4645 48.0355 C 14.0503 48.0355 13.676 48.204 13.4045 48.4755 L 11.4045 50.4755 L 8.9645 48.0355 ZM 23 48 L 23 41 L 16 41 L 18.44 43.44 L 16.44 45.44 C 16.1686 45.7114 16 46.0858 16 46.5 C 16 47.3284 16.6716 48 17.5 48 C 17.9142 48 18.2886 47.8314 18.56 47.56 L 20.56 45.56 L 23 48 ZM 8 16 L 20 24 L 20 8 L 8 16 ZM 56 16 L 44 8 L 44 24 L 56 16 Z" fill="#ffffff"/>
</svg>
