<?xml version="1.0" standalone="no"?>
<!-- Generator: Adobe Fireworks 10, Export SVG Extension by Aaron Beall (http://fireworks.abeall.com) . Version: 0.6.1  -->
<!DOCTYPE svg PUBLIC "-//W3C//DTD SVG 1.1//EN" "http://www.w3.org/Graphics/SVG/1.1/DTD/svg11.dtd">
<svg id="fotorama.fw-Page%201" viewBox="0 0 96 160" style="background-color:#ffffff00" version="1.1"
	xmlns="http://www.w3.org/2000/svg" xmlns:xlink="http://www.w3.org/1999/xlink" xml:space="preserve"
	x="0px" y="0px" width="96px" height="160px"
>
	<path id="icon" d="M 86.5 10.5 L 84.5 8.5 L 79 14 L 73.5 8.5 L 71.5 10.5 L 77 16 L 71.5 21.5 L 73.5 23.5 L 79 18 L 84.5 23.5 L 86.5 21.5 L 91 16 L 86.5 10.5 ZM 14 112 C 14 93.2221 29.2221 78 48 78 C 66.7779 78 82 93.2221 82 112 C 82 130.7779 66.7779 146 48 146 C 29.2221 146 14 130.7779 14 112 ZM 10 112 C 10 132.9871 27.0129 150 48 150 C 68.9871 150 86 132.9871 86 112 C 86 91.0129 68.9871 74 48 74 C 27.0129 74 10 91.0129 10 112 ZM 36 96 L 36 128 L 67 112 L 36 96 ZM 69 48 C 69 41.9248 73.9248 37 80 37 C 86.0752 37 91 41.9248 91 48 C 91 54.0752 86.0752 59 80 59 C 73.9248 59 69 54.0752 69 48 ZM 67 48 C 67 55.1798 72.8202 61 80 61 C 87.1798 61 93 55.1798 93 48 C 93 40.8202 87.1798 35 80 35 C 72.8202 35 67 40.8202 67 48 ZM 86 48 L 76 43 L 76 53 L 86 48 ZM 48.9645 40.0355 L 48.9645 47.0355 L 55.9645 47.0355 L 53.5245 44.5955 L 55.5245 42.5955 C 55.796 42.324 55.9645 41.9497 55.9645 41.5355 C 55.9645 40.707 55.293 40.0355 54.4645 40.0355 C 54.0503 40.0355 53.676 40.204 53.4045 40.4755 L 51.4045 42.4755 L 48.9645 40.0355 ZM 47 56 L 47 49 L 40 49 L 42.44 51.44 L 40.44 53.44 C 40.1686 53.7114 40 54.0858 40 54.5 C 40 55.3284 40.6716 56 41.5 56 C 41.9142 56 42.2886 55.8314 42.56 55.56 L 44.56 53.56 L 47 56 ZM 8.9645 48.0355 L 8.9645 55.0355 L 15.9645 55.0355 L 13.5245 52.5955 L 15.5245 50.5955 C 15.796 50.324 15.9645 49.9497 15.9645 49.5355 C 15.9645 48.707 15.293 48.0355 14.4645 48.0355 C 14.0503 48.0355 13.676 48.204 13.4045 48.4755 L 11.4045 50.4755 L 8.9645 48.0355 ZM 23 48 L 23 41 L 16 41 L 18.44 43.44 L 16.44 45.44 C 16.1686 45.7114 16 46.0858 16 46.5 C 16 47.3284 16.6716 48 17.5 48 C 17.9142 48 18.2886 47.8314 18.56 47.56 L 20.56 45.56 L 23 48 ZM 8 16 L 20 24 L 20 8 L 8 16 ZM 56 16 L 44 8 L 44 24 L 56 16 Z" fill="#ffffff"/>
</svg>
